<?xml version="1.0" encoding="utf-8"?>
<!-- Generator: Adobe Illustrator 16.0.0, SVG Export Plug-In . SVG Version: 6.00 Build 0)  -->
<!DOCTYPE svg PUBLIC "-//W3C//DTD SVG 1.1//EN" "http://www.w3.org/Graphics/SVG/1.1/DTD/svg11.dtd">
<svg version="1.1" id="Layer_1" xmlns="http://www.w3.org/2000/svg" xmlns:xlink="http://www.w3.org/1999/xlink" x="0px" y="0px"
	 width="40px" height="40px" viewBox="0 0 40 40" enable-background="new 0 0 40 40" xml:space="preserve">
<symbol  id="polymer-logo--lockup" viewBox="0 -40 40 40">
	<g>
		<g>
			<polygon fill="#303F9F" points="12.092,-20 8.123,-26.875 12.092,-33.75 16.062,-26.875 			"/>
			<polygon fill="#3F51B5" points="35.908,-6.25 31.938,-13.125 35.908,-20 39.877,-13.125 			"/>
			<polygon fill="#7986CB" points="39.877,-13.125 27.969,-33.75 35.908,-33.75 43.847,-20 			"/>
			<polygon fill="#FF4081" points="27.969,-6.25 12.092,-33.75 20.031,-33.75 35.908,-6.25 			"/>
			<polygon fill="#536DFE" points="12.092,-6.25 4.153,-20 8.123,-26.875 20.031,-6.25 			"/>
			<polygon fill="#FFFFFF" fill-opacity="0.2" points="27.969,-6.25 31.938,-13.125 35.908,-6.25 			"/>
			<polygon fill="#FFFFFF" fill-opacity="0.1" points="24,-13.125 27.969,-6.25 31.938,-13.125 			"/>
			<polygon fill="#FFFFFF" fill-opacity="0" points="24,-13.125 27.969,-20 31.938,-13.125 			"/>
			<polygon fill-opacity="0.1" points="20.031,-20 24,-13.125 27.969,-20 			"/>
			<polygon fill-opacity="0.2" points="20.031,-20 24,-26.875 27.969,-20 			"/>
			<polygon fill-opacity="0.3" points="16.062,-26.875 20.031,-20 24,-26.875 			"/>
			<polygon fill-opacity="0.4" points="16.062,-26.875 20.031,-33.75 24,-26.875 			"/>
			<polygon fill-opacity="0.5" points="12.092,-33.75 16.062,-26.875 20.031,-33.75 			"/>
			<polygon fill="#FFFFFF" fill-opacity="0.2" points="12.092,-6.25 16.062,-13.125 20.031,-6.25 			"/>
			<polygon fill="#FFFFFF" fill-opacity="0.1" points="8.123,-13.125 12.092,-6.25 16.062,-13.125 			"/>
			<polygon fill="#FFFFFF" fill-opacity="0" points="8.123,-13.125 12.092,-20 16.062,-13.125 			"/>
			<polygon fill-opacity="0.1" points="4.153,-20 8.123,-13.125 12.092,-20 			"/>
			<polygon fill-opacity="0.2" points="4.153,-20 8.123,-26.875 12.092,-20 			"/>
			<polygon fill="#FFFFFF" fill-opacity="0" points="16.062,-26.875 12.092,-20 8.123,-26.875 			"/>
			<polygon fill-opacity="0.2" points="16.062,-26.875 12.092,-33.75 8.123,-26.875 			"/>
			<polygon fill-opacity="0.2" points="39.877,-13.125 35.908,-6.25 31.938,-13.125 			"/>
			<polygon fill="#FFFFFF" fill-opacity="0" points="39.877,-13.125 35.908,-20 31.938,-13.125 			"/>
			<g>
				<polygon fill="#FFFFFF" fill-opacity="0.2" points="35.908,-20 39.877,-13.125 43.847,-20 				"/>
				<polygon fill="#FFFFFF" fill-opacity="0.1" points="35.908,-20 39.877,-26.875 43.847,-20 				"/>
				<polygon fill="#FFFFFF" fill-opacity="0" points="31.938,-26.875 35.908,-20 39.877,-26.875 				"/>
				<polygon fill-opacity="0.1" points="31.938,-26.875 35.908,-33.75 39.877,-26.875 				"/>
				<polygon fill-opacity="0.2" points="27.969,-33.75 31.938,-26.875 35.908,-33.75 				"/>
			</g>
		</g>
		<polygon fill="none" points="44,-40 4,-40 4,0 44,0 		"/>
	</g>
	<polygon fill="none" points="40,-40 0,-40 0,0 40,0 	"/>
</symbol>
<use xlink:href="#polymer-logo--lockup"  width="40" height="40" y="-40" transform="matrix(1 0 0 -1 0 0)" overflow="visible"/>
</svg>
